/* XPM */
static char *action1675689709[] = {
/* columns rows colors chars-per-pixel */
"128 32 63 1 ",
"  c black",
". c #060606",
"X c gray5",
"o c #101010",
"O c gray7",
"+ c #1B1B1B",
"@ c #1D1D1D",
"# c gray13",
"$ c #252525",
"% c #2A2A2A",
"& c #2C2C2C",
"* c #313131",
"= c gray20",
"- c #3A3A3A",
"; c #3F3F3F",
": c gray25",
"> c gray28",
", c #4B4B4B",
"< c gray30",
"1 c #515151",
"2 c gray33",
"3 c #5A5A5A",
"4 c gray37",
"5 c gray39",
"6 c gray40",
"7 c DimGray",
"8 c gray43",
"9 c gray44",
"0 c #777777",
"q c gray47",
"w c #7E7E7E",
"e c #838383",
"r c #848484",
"t c #898989",
"y c gray55",
"u c #939393",
"i c #959595",
"p c gray60",
"a c #9D9D9D",
"s c gray64",
"d c #A4A4A4",
"f c gray67",
"g c gray68",
"h c #B2B2B2",
"j c #B4B4B4",
"k c #B9B9B9",
"l c gray",
"z c gray76",
"x c gray78",
"c c #C8C8C8",
"v c #CDCDCD",
"b c gray82",
"n c #D5D5D5",
"m c gray86",
"M c #DDDDDD",
"N c #E1E1E1",
"B c #E4E4E4",
"V c #E9E9E9",
"C c #EFEFEF",
"Z c gray94",
"A c #F4F4F4",
"S c #F9F9F9",
"D c gray99",
/* pixels */
"gggggggggggggggggggggggggggggggggggggggggggggggggggggggggggggggggggggggggggggggggggggggggggggggggggggggggggggggggggggggggggggggg",
"goooooooooooooooooooooooooooooooooooooooooooooooooooooooooooooooooooooooooooooooooooooooooooooooooooooooooooooooooooooooooooooog",
"gooooooooooooooooooooooooooooooooooooooooooooooooooooooooooooooooooooooooooooooooooooooooooooooooooooooooooooooooooghoooooooooog",
"goooooooooooooooooooooooooooooooooooooooooooooooooooooooooooooooooooooooooooooooooooooooooooooooooooooooooooooooooosAdooooooooog",
"goooooooooooooooooooooooooooooooooooooooooooooooooooooooooooooooooooooooooooooooooooooooooooooooooooooooooooooooooookZ<oooooooog",
"gooooooooooooooooooooooooooooooooooooooooooooooooooooooooooooooooooooooooooooooooooooooooooooooooooooooooooooooooooofA2oooooooog",
"gooooooooooooooooooooooooooooooooooooooooooooooooooooooooooooooooooooooooooooooooooooooooooooooooooooooooooooooooXoaZlXoooooooog",
"gooooooooooooooooooooooooooooooooooooooooooooooooooooooooooooooooooooooooooooooooooooooooooooooooooooooooooooooXo-<Zn5*Xooooooog",
"goooggggfsy1oooooooooooooooooooooooooooooooooooooooooooooooooooogggggggggeooooooooooooooooooooooooooooooooooooo4anVDSVvu:oooooog",
"gooogggggggg9XoooooooooooooooooooooooooooooooooooooooooooooooooogggggggggeoooooooooooooooooooooooooooooooooooowmZmcVMhnZc:ooooog",
"gooogdoo+1tgg-oooooooooooooooooooooooooooooooooooooooooooooooooogdooooooXoooooooooooooooooooooooooooooooooooo4MMnNvMxo>pZkooooog",
"gooogdooooopg9oooooooooooooooooooooooooooooooooooooooooooooooooogdoooooooooooooooooooooooooooooooooooooooooooiCzDSMMcoookZ,Xooog",
"gooogdoooootg0o1gu%rdgrooo3uffsr+Xooo2udgdi9ooo2udgdi9oooooooooogdooooooooooooooooooX8pgfa0Xooo1gy&rdgroooooolnCDDNMxoooeAeoooog",
"gooogdoooo.ag5o<gadgggyooqggggggsooo4fgggggg<o4ggggggg<ooooooooogdooooooooooooooooootgggggguoXo1gsdgggyoooooocnADDMMxooo5Zyoooog",
"gooogdoX$2ufdoo1gga4oooo3gs6$o,ugqoopg9%o;8i<Xpg9%o:8i<ooooooooogggggggggeooooooooX5gf9*@7dg0XX1ggp4ooooooooocnADDMMxooo5Cyoooog",
"gooogggggggf2oo1giooooooyf:ooooXfpooag,oooooooag,XooooXooooooooogggggggggeooooooooXug9oooo4gsoo1giooooooooooocnBDDMMcooo8Zuoooog",
"goooggggfst:ooo<gyoooooodggggggggdXoegft8,ooooegft8<oooooooooooogdooooooooooooooooodg#ooooodgoo1gyoooooooooooxZnzzjNn0ehMSyoooog",
"gooogdooXoXoooo1gyoooooofggggggggfooXedgggd9ooXedgggd9oooooooooogdooooooooooooooooXfgoooooosg*o<gioooooooooooxVnBCCAZCCMnAuoooog",
"gooogdooooooooo1gyoooooodfXoooooooooooo<9ygg4oooX<9ygg5Xoooooooogdooooooooooooooooodg@ooooXfgoo1gyooooooooooocz>6wtyyyw68Zuoooog",
"gooogdooooooooo1guooooooig8ooooooooooooooo9geooooooo9grooooooooogdoooooooooooooooooig0oooX5gsXo1gyooooooooooocx+oooooooo5Zyoooog",
"gooogdooooooooo<gyoooooo4ggw>oo2wtooaw1Xo:ygqopw1oo:ygqooooooooogdooooooXoooooooooX5gf9*@7dg0oX1gyooooooooooocx+oooooooo6Zuoooog",
"gooogdooooooooo1guooooooXwgfgggggioodggggggd#ofggggggs#ooooooooogggggggggeoooooooooorggggggiooo1giooooooooooozv*oooooooo9Ztoooog",
"gooogdooooooooo1gyoooooooo3udgfaw>oo4ysgfawooo4ysgfawooooooooooogggggggggeooooooooooo8pffa0oooo1gyooooooooooohM<oooooooopA7oooog",
"goooooooooooooooXooooooooooooooXooooooooXoooooooXooXoooooooooooooooooooooooooooooooooooooooooooooooooooooooootZ9oooooooovBooooog",
"goooooooooooooooooooooooooooooooooooooooooooooooooooooooooooooooooooooooooooooooooooooooooooooooooooooooooooo2Mv;XooooorCdooooog",
"goooooooooooooooooooooooooooooooooooooooooooooooooooooooooooooooooooooooooooooooooooooooooooooooooooooooooooooiZx6oXooyBm-ooooog",
"goooooooooooooooooooooooooooooooooooooooooooooooooooooooooooooooooooooooooooooooooooooooooooooooooooooooooooooosCBxshnCn6oooooog",
"gooooooooooooooooooooooooooooooooooooooooooooooooooooooooooooooooooooooooooooooooooooooooooooooooooooooooooooooo8lVZCma,ooooooog",
"goooooooooooooooooooooooooooooooooooooooooooooooooooooooooooooooooooooooooooooooooooooooooooooooooooooooooooooooXoooooooooooooog",
"goooooooooooooooooooooooooooooooooooooooooooooooooooooooooooooooooooooooooooooooooooooooooooooooooooooooooooooooooooooooooooooog",
"goooooooooooooooooooooooooooooooooooooooooooooooooooooooooooooooooooooooooooooooooooooooooooooooooooooooooooooooooooooooooooooog",
"gggggggggggggggggggggggggggggggggggggggggggggggggggggggggggggggggggggggggggggggggggggggggggggggggggggggggggggggggggggggggggggggg"
};
