/* XPM */
static char *result[] = {
/* columns rows colors chars-per-pixel */
"64 64 236 2 ",
"   c #3E1A04",
".  c #441C05",
"X  c #4C220C",
"o  c #462009",
"O  c #582B17",
"+  c #4B2210",
"@  c #6D361B",
"#  c #6D391D",
"$  c #6B3417",
"%  c #71391D",
"&  c #71361B",
"*  c #652F0D",
"=  c #6E3B23",
"-  c #653722",
";  c #713D22",
":  c #7F3F23",
">  c #754329",
",  c #774933",
"<  c #6E483B",
"1  c #1B3144",
"2  c #1B344A",
"3  c #043658",
"4  c #1A2F42",
"5  c #043B62",
"6  c #304254",
"7  c #14476A",
"8  c #0A4A79",
"9  c #114C75",
"0  c #3D5D77",
"q  c #7A5E54",
"w  c #7A574D",
"e  c #436077",
"r  c #746766",
"t  c #776C6E",
"y  c #435361",
"u  c #8C3E17",
"i  c #903E16",
"p  c #8A411C",
"a  c #94451D",
"s  c #98471D",
"d  c #B7521D",
"f  c #A94C1C",
"g  c #8B4624",
"h  c #8B4924",
"j  c #884625",
"k  c #924723",
"l  c #934924",
"z  c #9B4B24",
"x  c #934D2C",
"c  c #9D4E2A",
"v  c #994721",
"b  c #9C502A",
"n  c #98512B",
"m  c #935332",
"M  c #9B5535",
"N  c #9D5838",
"B  c #8F5030",
"V  c #A44E24",
"C  c #A64E26",
"Z  c #A55125",
"A  c #AC5325",
"S  c #A6542C",
"D  c #AC562B",
"F  c #AE592D",
"G  c #A5582E",
"H  c #B1562B",
"J  c #B2592D",
"K  c #BC5B2C",
"L  c #B65625",
"P  c #AB5631",
"I  c #AC5A32",
"U  c #A45C3B",
"Y  c #A55B37",
"T  c #B35C32",
"R  c #BA5E32",
"E  c #B25F39",
"W  c #A9603D",
"Q  c #BC6134",
"!  c #BC653C",
"~  c #BF6B3F",
"^  c #B6643A",
"/  c #BD622B",
"(  c #BB710B",
")  c #C1581F",
"_  c #C97C0B",
"`  c #C25922",
"'  c #C15925",
"]  c #C15F30",
"[  c #C5652E",
"{  c #C36435",
"}  c #CA6635",
"|  c #CB6837",
" . c #C26539",
".. c #CA6739",
"X. c #C6693B",
"o. c #CD6B3C",
"O. c #D16D3D",
"+. c #D66C3A",
"@. c #D3703E",
"#. c #DA713E",
"$. c #CE703D",
"%. c #BE6C45",
"&. c #BC6F4B",
"*. c #B36947",
"=. c #BC714D",
"-. c #B57454",
";. c #B97553",
":. c #B77557",
">. c #AC6C4D",
",. c #897371",
"<. c #BA7D61",
"1. c #855D4A",
"2. c #C66E44",
"3. c #CB6E43",
"4. c #C46F49",
"5. c #D36E41",
"6. c #D86F40",
"7. c #CB7246",
"8. c #C2714B",
"9. c #CA7249",
"0. c #C77045",
"q. c #D47344",
"w. c #D57549",
"e. c #DB7C4D",
"r. c #D87748",
"t. c #C27452",
"y. c #CB7A55",
"u. c #CE7D59",
"i. c #C77855",
"p. c #DD7E51",
"a. c #D17E5A",
"s. c #D37D56",
"d. c #C26F51",
"f. c #E07F53",
"g. c #E07E4F",
"h. c #C47F60",
"j. c #D29131",
"k. c #DE8155",
"l. c #D5815B",
"z. c #DE835B",
"x. c #CE9244",
"c. c #E38255",
"v. c #E4855A",
"b. c #E8865C",
"n. c #E6895D",
"m. c #E9895D",
"M. c #E69E47",
"N. c #ECA952",
"B. c #DD8B65",
"V. c #D78967",
"C. c #DD997B",
"Z. c #DB9778",
"A. c #CF8969",
"S. c #E38B65",
"D. c #EB8C62",
"F. c #E48D69",
"G. c #EB8F68",
"H. c #EB9167",
"J. c #E5906C",
"K. c #EC956D",
"L. c #EB976D",
"P. c #F69A6F",
"I. c #F6996F",
"U. c #ED9771",
"Y. c #EC9671",
"T. c #ED9972",
"R. c #E19B7B",
"E. c #E99B78",
"W. c #F29772",
"Q. c #F49B73",
"!. c #FB9D72",
"~. c #F49D79",
"^. c #F5A17A",
"/. c #FAA37C",
"(. c #FAA276",
"). c #E9AB72",
"_. c #195885",
"`. c #225D89",
"'. c #19699D",
"]. c #26628E",
"[. c #35698F",
"{. c #256896",
"}. c #336E96",
"|. c #367196",
" X c #196DA7",
".X c #1873AD",
"XX c #0176BD",
"oX c #0677BB",
"OX c #1379B8",
"+X c #0B6DAD",
"@X c #206CA0",
"#X c #44779E",
"$X c #487AA3",
"%X c #0D7DC3",
"&X c #067DC5",
"*X c #127DC2",
"=X c #5080A4",
"-X c #0684CD",
";X c #0984CD",
":X c #0A81C7",
">X c #0385D3",
",X c #0983D0",
"<X c #0788D8",
"1X c #138AD4",
"2X c #188CD5",
"3X c #1B89D0",
"4X c #228DD5",
"5X c #2493DC",
"6X c #2A96DF",
"7X c #3797DC",
"8X c #2B99E5",
"9X c #349CE5",
"0X c #359DE7",
"qX c #39A3EB",
"wX c #37A7F4",
"eX c #1C97E7",
"rX c #45A6ED",
"tX c #4AABF4",
"yX c #4EB0F1",
"uX c #D59A84",
"iX c #CDA294",
"pX c #D3A698",
"aX c #FAA681",
"sX c #FDAA84",
"dX c #F5AC8A",
"fX c #FEAE89",
"gX c #F4A883",
"hX c #FBB18C",
"jX c #FDBB9A",
"kX c #F8B696",
"lX c #E9AF89",
"zX c #FFBFA0",
"xX c #FEC2A4",
"cX c #F5D6A8",
"vX c #F8E7D1",
"bX c #E8DED5",
/* pixels */
"V.7.7.7.9.3.7.7.7.7.7.7.7.7.7.7.9.7.7.9.9.7.9.7.9.7.9.9.3.7.7.7.9.7.9.9.0.9.9.9.7.9.7.9.9.7.9.9.9.7.9.7.9.7.9.7.7.9.7.7.7.9.7.3.",
":.H H H J P T F F H F H T D H H F H H H H F H F H J F H F T I H P H H F H F F H H F H H F H H H F F F F F F F F F F H F H F H V ",
"dXK.T.T.U.U.U.K.U.U.K.T.L.L.U.U.T.K.U.U.T.T.L.T.U.Y.W.T.L.L.L.W.T.T.Q.Y.Q.L.K.T.L.T.T.T.T.T.T.L.K.K.K.T.T.Y.T.Y.U.U.U.T.L.L.W.K.",
"uX8.;.l.&.a.y.=.l.=.u.a.=.l.t.i.l.&.l.8.i.l.&.a.i.&.l.=.i.y.=.a.;.9.l.=.a.t.i.l.=.u.i.8.l.=.u.y.=.l.;.y.y.=.s.t.i.l.=.u.y.t.l.*.",
":.m U x U m N U m Y M m U m U M x U m U N m U m N U m U M N U m U N m U n U N B U m N N x Y m M W m Y M m W m U M B W m N Y x G ",
"-.a g k l k k l p l g g l g k g g k g g k p l g g k g p T I j g k g k X.l k g p l g k k g l g g k g l g g x p k k g l p k p j V.",
";.f C J F H H D F D F D D H A D D D D D D F D D D D H C { Q V A D Z Z O.A S F J F D D F D D F F D H D F D D D D D D D F D Z C I.",
";.] X.z z c z z z z z z z z z z z z z z z z l z z z v X.+.@.O.V v R 6.5.5.F v z z v z z z v z z v z z z v z z z z z z z l D @.!.",
"-.J .. .{ {  . . . . . .{ { { X. . . .{  . .{  .Q  . ... .X.o. .Q  .X.| X.X.{ { ! {  .{  . .{ {  . . . . . . .X.{  . . .{  .X.Q.",
"1.* @ % # % @ @ @ @ @ @ @ @ @ @ & @ # @ & @ % & % ; @ $ # $ $ % % ; & @ @ @ @ & & % & # @ $ # @ & @ @ & @ @ @ @ @ # % % % @ @ K.",
">.Z Q E Q ! I v z z b b c b c b b c c C b z ^ R R T c c b : O N R R T S n z I ~ Q ! P v z b z x c c c b b c b b c z T R R R R Q.",
";.] #.O.| dXR.t.B.v.k.k.v.k.v.k.z.k.k.s.z.v.F X.P x p.V.k.E.kX- T I x a.z.k.T.zXq.aXZ.i.F.k.c.k.v.k.z.k.p.v.p.k.z.B.J ..5.O.O.Q.",
";.K O.o.} dXR.t.U. .S S S S S S S S S P 2.F.D } P B u.V.a.E.kX- I P g a.V.a.R.jX@.dXC.u.W.E S S P S S S P S S S 9.F.D { O.O.o.!.",
";.K o.O.} dXR.t.K.6 1 1 1 2 1 1 1 4 2 , 7.B.F { | X.lXdXkX<.- ^ | X.2.lXdXhXT.q.o.dXZ.u.I.6 1 1 4 2 4 2 1 4 2 , 7.S.S  .o.o.o.Q.",
";.K O.o...dXR.t.K.6 9 _.3 _.5 7 _.3 8 w q.S.F { +...m 2./.-..  .#.o.o.m 2.^.G.{ | hXZ.a.I.6 8 8 3 9 5 7 9 3 _.w q.S.D { 5.o.3.!.",
"-.K O.o.} dXR.t.W.e 3 3 `.5 9 9 3 ].5 < w.S.P { 5. .j K I.-.+  .o.q.X.g R W.K.} X.dXC.u.K.e 3 7 ].3 _.7 5 ].3 < w.S.F { o.| | Q.",
"-.K $.o.| dXR.t.K.e _.`.]._.].]._.{._.w 9.F.P { O...g k J.:.X  .+.3.X.g k F.H.| o.dXC.u.U.0 _._.].`.].`._.{._.w q.S.D { o.o.o.!.",
";.K @.3.| dXR.t.K.e +X*X{.OX{..X*X{.&Xr 3.F.D { O.X.g T !.-.X  .O.O.X.g T I.K.} | dXC.u.W.0 +XOX{.:X{..XOX{.:Xr q.S.D  .o.o.o.Q.",
";.K $.o.} dXR.t.U.[.'. XOX XOX.X'.OX.Xq 5.S.F Q O...g { !.-.X  .5.o...g { P.K...o.dXZ.u.W.[.'..X*X'.OX.X XOX.Xq q.F.D { O.o.O.!.",
";.K $.o.| dXC.d.K.0 +X:X'.*X X.X:X{.&Xt 5.F.F { O.X.g { !.-.X  .O.o.X.j [ !.H.| ..dXZ.u.U.0 +XOX{.%X XOXOX'.:Xr q.S.D { o.| o.Q.",
";.K q.o.} dXR.8.K.[.oX,X%X;X%X:X<X&X&Xt 3.F.D { q.{ g { ~.-.X  .O.o...j { I.H.} | dXR.a.U.[.&X,XOX,X:X:X:XOX>Xr q.S.F  .O.o.o.~.",
";.K o.o.| dXR.t.U.|.XX,X-X;X,X-X&X>X<Xt 5.S.S { 5.X.g { (.:.X  .O.O.X.j { I.H.| o.dXC.u.U.}.XX&X>X-X-X;X,X>X>Xr 5.S.D { o.o.o.!.",
";.K O.o.} dXR.t.Y.}.XX,X-X,X-X;X<X&X>Xr 5.F.H { O...g { !.;.X Q O.O.X.h { I.G...} dXZ.u.T.}.XX-X-X:X-X-X,X-X>Xr q.S.D { O.o.O.Q.",
"-.K o.O...dXC.t.I.|.XX-X;X-X;X-X,X,X>Xr O.F.F { o...g { !.-.X  .O.o.X.g { Q.G.} o.dXZ.u.T.}.XX-X;X;X,X-X;X;X>Xr 5.S.S { O.o.o.!.",
";.K $.o.| dXR.8.U.#X&X1X5X;X4X1X,X5X<Xr q.F.S { O. .g { !.-.X  .O.O.X.h { I.G.} ..dXC.u.W.$X&X1X5X;X5X1X,X8X>Xr q.F.D { O.O.o.Q.",
";.K $.o.} dXR.t.K.|.*X8X3X6X2X5X8X1X8Xt o.S.J  .o...g { !.:.X  .O.3.X.g { !.H.| | hXC.u.T.}.3X5X1X8X1X4X5X1XeX,.3.F.F  .o.o.5.I.",
";.K $.o.O.dXR.t.G.$X4X0X6X9X8X8X8X8XeX,.5.S.P ] O.X.g { !.-.X  .O.O.X.g { Q.H.| | dXZ.u.W.|.5X8X6X9X6X7X8X8X8X,.5.S.D { O.O.o.I.",
";.K o.o.| dXR.8.W.#X9XrX9XrX9XqXrXwXwX,.o.F.F  .O...g { !.:.X Q O.O.X.h { Q.H.| | dXZ.u.W.$X7XrX9XrX9XrXqX9XwX,.3.S.S { 3.o.o.!.",
";.K O.o.| dXR.t.G.$X5XqXwX0XrXqX0XrXwXt 9.F.D { o...g { !.-.X  .O.O.X.h { !.G.} | hXC.a.Q.$X5XqXrX0XrXqXqXrXwX,.5.S.A  .O.o.o.Q.",
";.K o.O.X.dXuXt.!.$X7XyX0XyXqXrXyXqXtX,.3.F.F { 3...g { !.-.X  .O.O.X.g [ W.H.} o.dXZ.u.~.$X7XrX0XtX0XrXrX0XtX,.3.S.F } o.o.O.Q.",
"-.K o.o.| dXR.8.~.uXiXpXiXpXiXiXpXiXpXA.s.S.F { O.X.g { !.-.X  .O.O.X.h { Q.H.| | dXZ.u./.uXiXpXpXpXiXpXpXiXpXA.s.S.A  .O.o.O.!.",
";.K O.| O.gXV.I  ...X.} } } } } } } } R 9.J.T { O.X.g { !.-.X  .O.o.{ g { Q.H.| X.dXV.F %...} { } { } { } } } R y.F.S { 5...O.Q.",
";.K o.O.| q.D.Q.K.K.K.L.W.K.K.K.K.K.L.L.W.^.O.2.O.X.g { !.-.X { O.o...j  .!.K.} o.q.n.L.T.).T.L.U.K.U.K.K.K.T.L.~.~.O.| o.o.o.!.",
";.K O.o.o.X.5.q.r.q.r.r.r.r.r.r.r.r.r.q.q.q.O.| O.X.g { !.-.X  .q.O.X.j { !.G.} O.| 3.r.w.w.r.q.r.q.r.w.q.r.r.q.q.q.7.o.o.$.o.!.",
";.K O.O.o.o.| X.X.| | | } | | X.X.| } | | | O.O.| X.j ] !.-.O R O.| X.g { L.G.o.| O.| ..X.....X.| | | X...| ....} | o.o.| o.o.Q.",
"-.K O.O.| q.{ A J H A H F A A H H D H A A ^ X.o.P x m q.E >.B.> T I l g 7.! ;.Y.r.O.Q H J D A H D H D A H H D A H T | o.5.o.O.Q.",
";.K o.o.3.k.7.A } +.O.5.5.5.5.5.#.O.#.5.J.kXT z l N R.hX&.b *.A.U j p n E.lXi.N K.G.X.L O.O.O.5.O.O.5.q.5.+.+.5.F.kXT { $.o.3.!.",
";.K 7.o.o.z.7.d L c.D.m.m.b.b.b.v.b.v.aXxXjXI Q P g B 7.b *.T.> F G j j 3.Y ;.^.w.S.3.A K f.m.v.m.m.b.b.n.m.b.dXxXjXJ { o.o.| !.",
";.K O.o.o.n.7.f A e.b.v.v.v.v.v.v.v.c.gXxXjXI { X.Q j K S.;.- x.N.N.M.p R z.F.e...B.3.d d e.D.v.v.v.v.v.v.c.v.gXxXjXP { O.o.o.Q.",
";.K $.o.| z.q.K X.3.4.7.2.2.2.9.4.3.4.2.E.jX^ Q #.X.j Q /.-.  ).vXcX).j Q Q.K.[ o.k.7.R  .2.0.2.7.3.2.2.4.9.2.2.E.zXE { o.O.o.!.",
";.K @.o.o.o.n./.(.^./.^.~.^.^.^.~.~.~.~././.q.| o.X.h { !.-.O bXlXcXvXB R P.K.| o.o.n.^.~./.~.^./.^.^.^./.^./.~.^.aX7.| o.o.o.!.",
";.K $.o.o.| q.z.p.f.p.f.c.f.p.c.p.c.p.c.k.r.q.@.I c  .| gXlXuXx.M.x.j.^ | ~.kXgXq.| w.k.c.p.c.p.p.f.g.k.g.e.p.c.p.w.#.| o.o.o.!.",
"-.K $.o.O.' e.~.U.K.L.Y.H.K.L.K.K.L.L.T.I.^.v.#. .Q c h J.A.= M.j.j.M.n h J.~.w.+.[ k.^.T.K.K.K.K.L.K.K.L.K.K.L.W.~.b.q.O.o.o.Q.",
"=.K $.o.O.` c.sXG G G G P S P S S D S z i.fXD.q.O...g K I.-.o M.M.N.N.h J I.H.} o.d b.J.z G D G S S S P P P F b y.hXD.q...o.o.Q.",
";.K o.o.o.` c.aXs X.r.w.w.r.w.q.w.r.w.V %.fXH.q.O.X.j { !.-.+ ( j._ ( g { I.G.O.o.) b.B.u X.r.r.w.r.r.q.q.w.w.s &.fXD.q.o.o.o.!.",
";.K @.o.O.` c.aXs K H.(.aX/.aX/.sX^.b.Z %.fXn.q.o...j { !.-.X / [ _ [ g { Q.H.X.$.) m.B.p K H.gX/.aX/.aXaX/.m.Z 8.fXD.q.o.O.O.Q.",
";.L O.o.@.L c./.s A X.l.jXjXjXjXjXjXv.Z %.fXD.r.O. .g { !.:.X  .O.3...g { I.H.| o.` m.B.p L X.J.jXjXjXjXjXjXv.f 8.fXm.q.o.o.| !.",
";.K @.o.O.' c.aXz A X.7.D.D.D.D.K.jXn.Z %.fXD.q.o.X.g { !.-.+ { O.O...j { I.H.| $.` b.B.i L { e.G.D.D.D.^.xXv.V 8.fXD.q.o.o.| Q.",
";.K $.o.5.` c.aXv H  .7.b.v.v.c.D.jXv.V %.fXD.q.| X.g { !.-.X  .O.O.X.h { !.H.| $.) m.B.p L ! w.b.v.v.f.T.xXv.V 8.sXD.q.o.o.o.!.",
";.K o.o.o.` c.aXs H { 7.b.m.b.b.D.jXn.Z 4.fXD.q.o.X.g { !.-.X  .O.O.X.j { !.H...o.) m.B.p J  .e.D.v.b.b.~.xXv.Z 8.fXm.q.o.o.o.!.",
";.K O.o.O.` c.aXz H { q.m.D.m.n.G.jXv.V %.fXD.q.| X.g { !.-.X  .O.O...g { I.H...o.) m.B.p L Q e.D.D.D.b.T.xXc.V 8.fXm.q.o.o.o.!.",
";.K O.3.o.` c.aXs H X.7.v.m.b.v.m.xXn.V %.fXD.r.o...g { ~.-.X  .O.o. .g [ I.H...$.) m.n.p J { r.b.v.b.c.~.xXc.V 8.sXm.q.o.o.o.W.",
";.K O.o.O.` c.aXz J X.X.{ K { K X.jXn.Z %.fXD.q.o.X.g { !.-.X  .O.o...j [ I.H...o.` b.B.i H X.X.R ] Q K l.xXv.V 8.fXm.q.o.o.o.!.",
";.K O.3.o.` c.aXv D Q Q R R R J K 2.e.Z 8.fXD.q.| X.g { !.-.X  .O.5...h { I.H...O.` m.B.i J Q Q K K K J ! 0.r.V 8.fXD.q.$.o.o.Q.",
";.K o.o.o.` c.aXv f Z C A C Z Z V V A p &.fXD.q.O.X.g { !.-.X  .@.O.X.j { I.H.} O.K m.B.u V S Z Z Z Z Z V V A a 8.fXD.q.o.o.o.!.",
";.K o.o.o.' c.sXz a v s a l s s s s s p 8.fXD.q.| X.g { !.-.X  .O.O.X.h { !.H.| $.` m.B.p s a a v v l s s s a u 9.fXm.q.o.o.o.W.",
";.K O.X.| d e.aXJ.J.J.J.J.J.J.J.J.F.F.J.T./.D.@.o.X.j  ./.-.. { O.O.X.j  .P.H.} @.d c.^.J.J.J.J.J.J.J.J.J.F.F.F.T./.D.O.X.| o.!.",
"-.K r.q.r.} { ! ~ %.%.X.~ ~ ~ ~ ~ 2.~ ~ ~ ^ n.e.o.{ h E.jX<.O T q.3.{ l R.jXL.O.o.[ { ! ~ X.X.~ ~ ~ ~ %.X.~ %.2.! %.n.e.q.@.q.!.",
"=.s.aX/.(./.~.~.W.~.~.~.~.~.~.~.~.W.~.W.^.~./.sX8.h } r.w.n.R.$ V.y.s ..r.r.n./.I S.^.~.~.~.~.~.~.~.~.W.~.~.~.Q.~.~./.(././.^./.",
"=.{ p.p.e.e.e.p.k.p.e.p.e.k.e.e.c.p.e.p.e.p.k.W W  .#.o.#.Q *.A.*.J [ +.+.} n.fXI 3.k.c.p.e.e.k.e.e.k.e.p.p.p.f.e.k.e.e.p.e.e.(.",
"-.L | O.| | | ..| | X.X.| X.X.| X.| o.X.X.| O.h H r.#.+.#.F p sXU D q.#.O.o.m.sXI { | X.X.| | | | ............o.| ..o.} | X.| !.",
";.] O.O.O.q.O.5.5.O.O.O.o.@.O.O.O.O.O.O.O.+.O.b J #.#.@.#.E j /.U F #.#.#.+.m.sXW { #.o.O.@.O.O.#.O.O.O.O.O.O.+.O.O.O.O.o.o.O.!.",
"-.K | o.X.| | X.o.o.| o.o.o.| o.| | o.| X.o.o.l D #.@.+.@.H j ^.U D #.O.+.+.m.sXI { O.| | o.o.o.| o.| o.o.X.o.o.X.o.o.o.o.| o.I.",
"1.@ ; ; ; ; % ; ; = ; = ; ; ; ; ; ; ; ; ; ; # - # > ; ; = # - , - # % > # ; > , - = ; ; ; = = ; ; ; ; ; ; ; ; ; ; ; = = ; ; ; = "
};
